%TF.GenerationSoftware,KiCad,Pcbnew,(6.0.8-1)-1*%
%TF.CreationDate,2022-10-27T21:51:23+08:00*%
%TF.ProjectId,Esp32_AGV_Relay,45737033-325f-4414-9756-5f52656c6179,rev?*%
%TF.SameCoordinates,Original*%
%TF.FileFunction,Legend,Top*%
%TF.FilePolarity,Positive*%
%FSLAX46Y46*%
G04 Gerber Fmt 4.6, Leading zero omitted, Abs format (unit mm)*
G04 Created by KiCad (PCBNEW (6.0.8-1)-1) date 2022-10-27 21:51:23*
%MOMM*%
%LPD*%
G01*
G04 APERTURE LIST*
%ADD10C,0.150000*%
%ADD11C,0.120000*%
G04 APERTURE END LIST*
D10*
X120045595Y-124952380D02*
X120045595Y-123952380D01*
X120378928Y-124666666D01*
X120712261Y-123952380D01*
X120712261Y-124952380D01*
X121093214Y-123952380D02*
X121759880Y-124952380D01*
X121759880Y-123952380D02*
X121093214Y-124952380D01*
X122140833Y-124952380D02*
X122140833Y-123952380D01*
X123188452Y-124857142D02*
X123140833Y-124904761D01*
X122997976Y-124952380D01*
X122902738Y-124952380D01*
X122759880Y-124904761D01*
X122664642Y-124809523D01*
X122617023Y-124714285D01*
X122569404Y-124523809D01*
X122569404Y-124380952D01*
X122617023Y-124190476D01*
X122664642Y-124095238D01*
X122759880Y-124000000D01*
X122902738Y-123952380D01*
X122997976Y-123952380D01*
X123140833Y-124000000D01*
X123188452Y-124047619D01*
X124712261Y-124428571D02*
X124855119Y-124476190D01*
X124902738Y-124523809D01*
X124950357Y-124619047D01*
X124950357Y-124761904D01*
X124902738Y-124857142D01*
X124855119Y-124904761D01*
X124759880Y-124952380D01*
X124378928Y-124952380D01*
X124378928Y-123952380D01*
X124712261Y-123952380D01*
X124807500Y-124000000D01*
X124855119Y-124047619D01*
X124902738Y-124142857D01*
X124902738Y-124238095D01*
X124855119Y-124333333D01*
X124807500Y-124380952D01*
X124712261Y-124428571D01*
X124378928Y-124428571D01*
X125378928Y-124428571D02*
X125712261Y-124428571D01*
X125855119Y-124952380D02*
X125378928Y-124952380D01*
X125378928Y-123952380D01*
X125855119Y-123952380D01*
X120045595Y-126038571D02*
X120378928Y-126038571D01*
X120521785Y-126562380D02*
X120045595Y-126562380D01*
X120045595Y-125562380D01*
X120521785Y-125562380D01*
X120902738Y-126514761D02*
X120997976Y-126562380D01*
X121188452Y-126562380D01*
X121283690Y-126514761D01*
X121331309Y-126419523D01*
X121331309Y-126371904D01*
X121283690Y-126276666D01*
X121188452Y-126229047D01*
X121045595Y-126229047D01*
X120950357Y-126181428D01*
X120902738Y-126086190D01*
X120902738Y-126038571D01*
X120950357Y-125943333D01*
X121045595Y-125895714D01*
X121188452Y-125895714D01*
X121283690Y-125943333D01*
X121759880Y-125895714D02*
X121759880Y-126895714D01*
X121759880Y-125943333D02*
X121855119Y-125895714D01*
X122045595Y-125895714D01*
X122140833Y-125943333D01*
X122188452Y-125990952D01*
X122236071Y-126086190D01*
X122236071Y-126371904D01*
X122188452Y-126467142D01*
X122140833Y-126514761D01*
X122045595Y-126562380D01*
X121855119Y-126562380D01*
X121759880Y-126514761D01*
X122569404Y-125562380D02*
X123188452Y-125562380D01*
X122855119Y-125943333D01*
X122997976Y-125943333D01*
X123093214Y-125990952D01*
X123140833Y-126038571D01*
X123188452Y-126133809D01*
X123188452Y-126371904D01*
X123140833Y-126467142D01*
X123093214Y-126514761D01*
X122997976Y-126562380D01*
X122712261Y-126562380D01*
X122617023Y-126514761D01*
X122569404Y-126467142D01*
X123569404Y-125657619D02*
X123617023Y-125610000D01*
X123712261Y-125562380D01*
X123950357Y-125562380D01*
X124045595Y-125610000D01*
X124093214Y-125657619D01*
X124140833Y-125752857D01*
X124140833Y-125848095D01*
X124093214Y-125990952D01*
X123521785Y-126562380D01*
X124140833Y-126562380D01*
X125140833Y-126562380D02*
X124807500Y-126086190D01*
X124569404Y-126562380D02*
X124569404Y-125562380D01*
X124950357Y-125562380D01*
X125045595Y-125610000D01*
X125093214Y-125657619D01*
X125140833Y-125752857D01*
X125140833Y-125895714D01*
X125093214Y-125990952D01*
X125045595Y-126038571D01*
X124950357Y-126086190D01*
X124569404Y-126086190D01*
X125950357Y-126514761D02*
X125855119Y-126562380D01*
X125664642Y-126562380D01*
X125569404Y-126514761D01*
X125521785Y-126419523D01*
X125521785Y-126038571D01*
X125569404Y-125943333D01*
X125664642Y-125895714D01*
X125855119Y-125895714D01*
X125950357Y-125943333D01*
X125997976Y-126038571D01*
X125997976Y-126133809D01*
X125521785Y-126229047D01*
X126569404Y-126562380D02*
X126474166Y-126514761D01*
X126426547Y-126419523D01*
X126426547Y-125562380D01*
X127378928Y-126562380D02*
X127378928Y-126038571D01*
X127331309Y-125943333D01*
X127236071Y-125895714D01*
X127045595Y-125895714D01*
X126950357Y-125943333D01*
X127378928Y-126514761D02*
X127283690Y-126562380D01*
X127045595Y-126562380D01*
X126950357Y-126514761D01*
X126902738Y-126419523D01*
X126902738Y-126324285D01*
X126950357Y-126229047D01*
X127045595Y-126181428D01*
X127283690Y-126181428D01*
X127378928Y-126133809D01*
X127759880Y-125895714D02*
X127997976Y-126562380D01*
X128236071Y-125895714D02*
X127997976Y-126562380D01*
X127902738Y-126800476D01*
X127855119Y-126848095D01*
X127759880Y-126895714D01*
X128617023Y-126181428D02*
X129378928Y-126181428D01*
X129807500Y-126276666D02*
X130283690Y-126276666D01*
X129712261Y-126562380D02*
X130045595Y-125562380D01*
X130378928Y-126562380D01*
X131236071Y-125610000D02*
X131140833Y-125562380D01*
X130997976Y-125562380D01*
X130855119Y-125610000D01*
X130759880Y-125705238D01*
X130712261Y-125800476D01*
X130664642Y-125990952D01*
X130664642Y-126133809D01*
X130712261Y-126324285D01*
X130759880Y-126419523D01*
X130855119Y-126514761D01*
X130997976Y-126562380D01*
X131093214Y-126562380D01*
X131236071Y-126514761D01*
X131283690Y-126467142D01*
X131283690Y-126133809D01*
X131093214Y-126133809D01*
X131569404Y-125562380D02*
X131902738Y-126562380D01*
X132236071Y-125562380D01*
X119950357Y-127505714D02*
X120188452Y-128172380D01*
X120426547Y-127505714D01*
X121188452Y-128124761D02*
X121093214Y-128172380D01*
X120902738Y-128172380D01*
X120807500Y-128124761D01*
X120759880Y-128029523D01*
X120759880Y-127648571D01*
X120807500Y-127553333D01*
X120902738Y-127505714D01*
X121093214Y-127505714D01*
X121188452Y-127553333D01*
X121236071Y-127648571D01*
X121236071Y-127743809D01*
X120759880Y-127839047D01*
X121664642Y-128172380D02*
X121664642Y-127505714D01*
X121664642Y-127696190D02*
X121712261Y-127600952D01*
X121759880Y-127553333D01*
X121855119Y-127505714D01*
X121950357Y-127505714D01*
X122283690Y-128077142D02*
X122331309Y-128124761D01*
X122283690Y-128172380D01*
X122236071Y-128124761D01*
X122283690Y-128077142D01*
X122283690Y-128172380D01*
X122283690Y-127553333D02*
X122331309Y-127600952D01*
X122283690Y-127648571D01*
X122236071Y-127600952D01*
X122283690Y-127553333D01*
X122283690Y-127648571D01*
X124045595Y-128172380D02*
X123474166Y-128172380D01*
X123759880Y-128172380D02*
X123759880Y-127172380D01*
X123664642Y-127315238D01*
X123569404Y-127410476D01*
X123474166Y-127458095D01*
X125521785Y-128553333D02*
X125474166Y-128505714D01*
X125378928Y-128362857D01*
X125331309Y-128267619D01*
X125283690Y-128124761D01*
X125236071Y-127886666D01*
X125236071Y-127696190D01*
X125283690Y-127458095D01*
X125331309Y-127315238D01*
X125378928Y-127220000D01*
X125474166Y-127077142D01*
X125521785Y-127029523D01*
X125855119Y-127267619D02*
X125902738Y-127220000D01*
X125997976Y-127172380D01*
X126236071Y-127172380D01*
X126331309Y-127220000D01*
X126378928Y-127267619D01*
X126426547Y-127362857D01*
X126426547Y-127458095D01*
X126378928Y-127600952D01*
X125807500Y-128172380D01*
X126426547Y-128172380D01*
X127045595Y-127172380D02*
X127140833Y-127172380D01*
X127236071Y-127220000D01*
X127283690Y-127267619D01*
X127331309Y-127362857D01*
X127378928Y-127553333D01*
X127378928Y-127791428D01*
X127331309Y-127981904D01*
X127283690Y-128077142D01*
X127236071Y-128124761D01*
X127140833Y-128172380D01*
X127045595Y-128172380D01*
X126950357Y-128124761D01*
X126902738Y-128077142D01*
X126855119Y-127981904D01*
X126807500Y-127791428D01*
X126807500Y-127553333D01*
X126855119Y-127362857D01*
X126902738Y-127267619D01*
X126950357Y-127220000D01*
X127045595Y-127172380D01*
X127759880Y-127267619D02*
X127807500Y-127220000D01*
X127902738Y-127172380D01*
X128140833Y-127172380D01*
X128236071Y-127220000D01*
X128283690Y-127267619D01*
X128331309Y-127362857D01*
X128331309Y-127458095D01*
X128283690Y-127600952D01*
X127712261Y-128172380D01*
X128331309Y-128172380D01*
X128712261Y-127267619D02*
X128759880Y-127220000D01*
X128855119Y-127172380D01*
X129093214Y-127172380D01*
X129188452Y-127220000D01*
X129236071Y-127267619D01*
X129283690Y-127362857D01*
X129283690Y-127458095D01*
X129236071Y-127600952D01*
X128664642Y-128172380D01*
X129283690Y-128172380D01*
X130426547Y-127124761D02*
X129569404Y-128410476D01*
X131283690Y-128172380D02*
X130712261Y-128172380D01*
X130997976Y-128172380D02*
X130997976Y-127172380D01*
X130902738Y-127315238D01*
X130807500Y-127410476D01*
X130712261Y-127458095D01*
X131902738Y-127172380D02*
X131997976Y-127172380D01*
X132093214Y-127220000D01*
X132140833Y-127267619D01*
X132188452Y-127362857D01*
X132236071Y-127553333D01*
X132236071Y-127791428D01*
X132188452Y-127981904D01*
X132140833Y-128077142D01*
X132093214Y-128124761D01*
X131997976Y-128172380D01*
X131902738Y-128172380D01*
X131807500Y-128124761D01*
X131759880Y-128077142D01*
X131712261Y-127981904D01*
X131664642Y-127791428D01*
X131664642Y-127553333D01*
X131712261Y-127362857D01*
X131759880Y-127267619D01*
X131807500Y-127220000D01*
X131902738Y-127172380D01*
X133378928Y-127124761D02*
X132521785Y-128410476D01*
X133664642Y-127267619D02*
X133712261Y-127220000D01*
X133807500Y-127172380D01*
X134045595Y-127172380D01*
X134140833Y-127220000D01*
X134188452Y-127267619D01*
X134236071Y-127362857D01*
X134236071Y-127458095D01*
X134188452Y-127600952D01*
X133617023Y-128172380D01*
X134236071Y-128172380D01*
X134807500Y-127600952D02*
X134712261Y-127553333D01*
X134664642Y-127505714D01*
X134617023Y-127410476D01*
X134617023Y-127362857D01*
X134664642Y-127267619D01*
X134712261Y-127220000D01*
X134807500Y-127172380D01*
X134997976Y-127172380D01*
X135093214Y-127220000D01*
X135140833Y-127267619D01*
X135188452Y-127362857D01*
X135188452Y-127410476D01*
X135140833Y-127505714D01*
X135093214Y-127553333D01*
X134997976Y-127600952D01*
X134807500Y-127600952D01*
X134712261Y-127648571D01*
X134664642Y-127696190D01*
X134617023Y-127791428D01*
X134617023Y-127981904D01*
X134664642Y-128077142D01*
X134712261Y-128124761D01*
X134807500Y-128172380D01*
X134997976Y-128172380D01*
X135093214Y-128124761D01*
X135140833Y-128077142D01*
X135188452Y-127981904D01*
X135188452Y-127791428D01*
X135140833Y-127696190D01*
X135093214Y-127648571D01*
X134997976Y-127600952D01*
X135521785Y-128553333D02*
X135569404Y-128505714D01*
X135664642Y-128362857D01*
X135712261Y-128267619D01*
X135759880Y-128124761D01*
X135807500Y-127886666D01*
X135807500Y-127696190D01*
X135759880Y-127458095D01*
X135712261Y-127315238D01*
X135664642Y-127220000D01*
X135569404Y-127077142D01*
X135521785Y-127029523D01*
X119787976Y-113689761D02*
X119930833Y-113737380D01*
X120168928Y-113737380D01*
X120264166Y-113689761D01*
X120311785Y-113642142D01*
X120359404Y-113546904D01*
X120359404Y-113451666D01*
X120311785Y-113356428D01*
X120264166Y-113308809D01*
X120168928Y-113261190D01*
X119978452Y-113213571D01*
X119883214Y-113165952D01*
X119835595Y-113118333D01*
X119787976Y-113023095D01*
X119787976Y-112927857D01*
X119835595Y-112832619D01*
X119883214Y-112785000D01*
X119978452Y-112737380D01*
X120216547Y-112737380D01*
X120359404Y-112785000D01*
X121359404Y-113642142D02*
X121311785Y-113689761D01*
X121168928Y-113737380D01*
X121073690Y-113737380D01*
X120930833Y-113689761D01*
X120835595Y-113594523D01*
X120787976Y-113499285D01*
X120740357Y-113308809D01*
X120740357Y-113165952D01*
X120787976Y-112975476D01*
X120835595Y-112880238D01*
X120930833Y-112785000D01*
X121073690Y-112737380D01*
X121168928Y-112737380D01*
X121311785Y-112785000D01*
X121359404Y-112832619D01*
X122264166Y-113737380D02*
X121787976Y-113737380D01*
X121787976Y-112737380D01*
X119787976Y-115299761D02*
X119930833Y-115347380D01*
X120168928Y-115347380D01*
X120264166Y-115299761D01*
X120311785Y-115252142D01*
X120359404Y-115156904D01*
X120359404Y-115061666D01*
X120311785Y-114966428D01*
X120264166Y-114918809D01*
X120168928Y-114871190D01*
X119978452Y-114823571D01*
X119883214Y-114775952D01*
X119835595Y-114728333D01*
X119787976Y-114633095D01*
X119787976Y-114537857D01*
X119835595Y-114442619D01*
X119883214Y-114395000D01*
X119978452Y-114347380D01*
X120216547Y-114347380D01*
X120359404Y-114395000D01*
X120787976Y-115347380D02*
X120787976Y-114347380D01*
X121026071Y-114347380D01*
X121168928Y-114395000D01*
X121264166Y-114490238D01*
X121311785Y-114585476D01*
X121359404Y-114775952D01*
X121359404Y-114918809D01*
X121311785Y-115109285D01*
X121264166Y-115204523D01*
X121168928Y-115299761D01*
X121026071Y-115347380D01*
X120787976Y-115347380D01*
X121740357Y-115061666D02*
X122216547Y-115061666D01*
X121645119Y-115347380D02*
X121978452Y-114347380D01*
X122311785Y-115347380D01*
X119835595Y-116576428D02*
X120597500Y-116576428D01*
X120216547Y-116957380D02*
X120216547Y-116195476D01*
X121549880Y-115957380D02*
X121073690Y-115957380D01*
X121026071Y-116433571D01*
X121073690Y-116385952D01*
X121168928Y-116338333D01*
X121407023Y-116338333D01*
X121502261Y-116385952D01*
X121549880Y-116433571D01*
X121597500Y-116528809D01*
X121597500Y-116766904D01*
X121549880Y-116862142D01*
X121502261Y-116909761D01*
X121407023Y-116957380D01*
X121168928Y-116957380D01*
X121073690Y-116909761D01*
X121026071Y-116862142D01*
X121883214Y-115957380D02*
X122216547Y-116957380D01*
X122549880Y-115957380D01*
X120359404Y-117615000D02*
X120264166Y-117567380D01*
X120121309Y-117567380D01*
X119978452Y-117615000D01*
X119883214Y-117710238D01*
X119835595Y-117805476D01*
X119787976Y-117995952D01*
X119787976Y-118138809D01*
X119835595Y-118329285D01*
X119883214Y-118424523D01*
X119978452Y-118519761D01*
X120121309Y-118567380D01*
X120216547Y-118567380D01*
X120359404Y-118519761D01*
X120407023Y-118472142D01*
X120407023Y-118138809D01*
X120216547Y-118138809D01*
X120835595Y-118567380D02*
X120835595Y-117567380D01*
X121407023Y-118567380D01*
X121407023Y-117567380D01*
X121883214Y-118567380D02*
X121883214Y-117567380D01*
X122121309Y-117567380D01*
X122264166Y-117615000D01*
X122359404Y-117710238D01*
X122407023Y-117805476D01*
X122454642Y-117995952D01*
X122454642Y-118138809D01*
X122407023Y-118329285D01*
X122359404Y-118424523D01*
X122264166Y-118519761D01*
X122121309Y-118567380D01*
X121883214Y-118567380D01*
X119735595Y-92523571D02*
X120068928Y-92523571D01*
X120211785Y-93047380D02*
X119735595Y-93047380D01*
X119735595Y-92047380D01*
X120211785Y-92047380D01*
X120640357Y-93047380D02*
X120640357Y-92047380D01*
X121211785Y-93047380D01*
X121211785Y-92047380D01*
X120259404Y-93705000D02*
X120164166Y-93657380D01*
X120021309Y-93657380D01*
X119878452Y-93705000D01*
X119783214Y-93800238D01*
X119735595Y-93895476D01*
X119687976Y-94085952D01*
X119687976Y-94228809D01*
X119735595Y-94419285D01*
X119783214Y-94514523D01*
X119878452Y-94609761D01*
X120021309Y-94657380D01*
X120116547Y-94657380D01*
X120259404Y-94609761D01*
X120307023Y-94562142D01*
X120307023Y-94228809D01*
X120116547Y-94228809D01*
X120735595Y-94657380D02*
X120735595Y-93657380D01*
X121307023Y-94657380D01*
X121307023Y-93657380D01*
X121783214Y-94657380D02*
X121783214Y-93657380D01*
X122021309Y-93657380D01*
X122164166Y-93705000D01*
X122259404Y-93800238D01*
X122307023Y-93895476D01*
X122354642Y-94085952D01*
X122354642Y-94228809D01*
X122307023Y-94419285D01*
X122259404Y-94514523D01*
X122164166Y-94609761D01*
X122021309Y-94657380D01*
X121783214Y-94657380D01*
X156984761Y-127330952D02*
X157032380Y-127188095D01*
X157032380Y-126950000D01*
X156984761Y-126854761D01*
X156937142Y-126807142D01*
X156841904Y-126759523D01*
X156746666Y-126759523D01*
X156651428Y-126807142D01*
X156603809Y-126854761D01*
X156556190Y-126950000D01*
X156508571Y-127140476D01*
X156460952Y-127235714D01*
X156413333Y-127283333D01*
X156318095Y-127330952D01*
X156222857Y-127330952D01*
X156127619Y-127283333D01*
X156080000Y-127235714D01*
X156032380Y-127140476D01*
X156032380Y-126902380D01*
X156080000Y-126759523D01*
X156651428Y-126330952D02*
X156651428Y-125569047D01*
X157032380Y-125950000D02*
X156270476Y-125950000D01*
X156984761Y-124378571D02*
X157032380Y-124235714D01*
X157032380Y-123997619D01*
X156984761Y-123902380D01*
X156937142Y-123854761D01*
X156841904Y-123807142D01*
X156746666Y-123807142D01*
X156651428Y-123854761D01*
X156603809Y-123902380D01*
X156556190Y-123997619D01*
X156508571Y-124188095D01*
X156460952Y-124283333D01*
X156413333Y-124330952D01*
X156318095Y-124378571D01*
X156222857Y-124378571D01*
X156127619Y-124330952D01*
X156080000Y-124283333D01*
X156032380Y-124188095D01*
X156032380Y-123950000D01*
X156080000Y-123807142D01*
X156651428Y-123378571D02*
X156651428Y-122616666D01*
X147701428Y-127693809D02*
X147701428Y-126931904D01*
X147701428Y-123408095D02*
X147701428Y-122646190D01*
X148082380Y-123027142D02*
X147320476Y-123027142D01*
%TO.C,J1*%
X158066666Y-129014761D02*
X158209523Y-129062380D01*
X158447619Y-129062380D01*
X158542857Y-129014761D01*
X158590476Y-128967142D01*
X158638095Y-128871904D01*
X158638095Y-128776666D01*
X158590476Y-128681428D01*
X158542857Y-128633809D01*
X158447619Y-128586190D01*
X158257142Y-128538571D01*
X158161904Y-128490952D01*
X158114285Y-128443333D01*
X158066666Y-128348095D01*
X158066666Y-128252857D01*
X158114285Y-128157619D01*
X158161904Y-128110000D01*
X158257142Y-128062380D01*
X158495238Y-128062380D01*
X158638095Y-128110000D01*
X159447619Y-129014761D02*
X159352380Y-129062380D01*
X159161904Y-129062380D01*
X159066666Y-129014761D01*
X159019047Y-128919523D01*
X159019047Y-128538571D01*
X159066666Y-128443333D01*
X159161904Y-128395714D01*
X159352380Y-128395714D01*
X159447619Y-128443333D01*
X159495238Y-128538571D01*
X159495238Y-128633809D01*
X159019047Y-128729047D01*
X159923809Y-128395714D02*
X159923809Y-129062380D01*
X159923809Y-128490952D02*
X159971428Y-128443333D01*
X160066666Y-128395714D01*
X160209523Y-128395714D01*
X160304761Y-128443333D01*
X160352380Y-128538571D01*
X160352380Y-129062380D01*
X160780952Y-129014761D02*
X160876190Y-129062380D01*
X161066666Y-129062380D01*
X161161904Y-129014761D01*
X161209523Y-128919523D01*
X161209523Y-128871904D01*
X161161904Y-128776666D01*
X161066666Y-128729047D01*
X160923809Y-128729047D01*
X160828571Y-128681428D01*
X160780952Y-128586190D01*
X160780952Y-128538571D01*
X160828571Y-128443333D01*
X160923809Y-128395714D01*
X161066666Y-128395714D01*
X161161904Y-128443333D01*
X161780952Y-129062380D02*
X161685714Y-129014761D01*
X161638095Y-128967142D01*
X161590476Y-128871904D01*
X161590476Y-128586190D01*
X161638095Y-128490952D01*
X161685714Y-128443333D01*
X161780952Y-128395714D01*
X161923809Y-128395714D01*
X162019047Y-128443333D01*
X162066666Y-128490952D01*
X162114285Y-128586190D01*
X162114285Y-128871904D01*
X162066666Y-128967142D01*
X162019047Y-129014761D01*
X161923809Y-129062380D01*
X161780952Y-129062380D01*
X162542857Y-129062380D02*
X162542857Y-128395714D01*
X162542857Y-128586190D02*
X162590476Y-128490952D01*
X162638095Y-128443333D01*
X162733333Y-128395714D01*
X162828571Y-128395714D01*
%TO.C,R3*%
X145802380Y-109910476D02*
X145802380Y-110481904D01*
X145802380Y-110196190D02*
X144802380Y-110196190D01*
X144945238Y-110291428D01*
X145040476Y-110386666D01*
X145088095Y-110481904D01*
X144802380Y-109291428D02*
X144802380Y-109196190D01*
X144850000Y-109100952D01*
X144897619Y-109053333D01*
X144992857Y-109005714D01*
X145183333Y-108958095D01*
X145421428Y-108958095D01*
X145611904Y-109005714D01*
X145707142Y-109053333D01*
X145754761Y-109100952D01*
X145802380Y-109196190D01*
X145802380Y-109291428D01*
X145754761Y-109386666D01*
X145707142Y-109434285D01*
X145611904Y-109481904D01*
X145421428Y-109529523D01*
X145183333Y-109529523D01*
X144992857Y-109481904D01*
X144897619Y-109434285D01*
X144850000Y-109386666D01*
X144802380Y-109291428D01*
X145802380Y-108529523D02*
X144802380Y-108529523D01*
X145802380Y-107958095D02*
X145230952Y-108386666D01*
X144802380Y-107958095D02*
X145373809Y-108529523D01*
%TO.C,R4*%
X136625714Y-110052380D02*
X136054285Y-110052380D01*
X136340000Y-110052380D02*
X136340000Y-109052380D01*
X136244761Y-109195238D01*
X136149523Y-109290476D01*
X136054285Y-109338095D01*
X137054285Y-110052380D02*
X137054285Y-109052380D01*
X137625714Y-110052380D02*
X137197142Y-109480952D01*
X137625714Y-109052380D02*
X137054285Y-109623809D01*
%TO.C,R5*%
X145852380Y-103490476D02*
X145852380Y-104061904D01*
X145852380Y-103776190D02*
X144852380Y-103776190D01*
X144995238Y-103871428D01*
X145090476Y-103966666D01*
X145138095Y-104061904D01*
X144852380Y-102871428D02*
X144852380Y-102776190D01*
X144900000Y-102680952D01*
X144947619Y-102633333D01*
X145042857Y-102585714D01*
X145233333Y-102538095D01*
X145471428Y-102538095D01*
X145661904Y-102585714D01*
X145757142Y-102633333D01*
X145804761Y-102680952D01*
X145852380Y-102776190D01*
X145852380Y-102871428D01*
X145804761Y-102966666D01*
X145757142Y-103014285D01*
X145661904Y-103061904D01*
X145471428Y-103109523D01*
X145233333Y-103109523D01*
X145042857Y-103061904D01*
X144947619Y-103014285D01*
X144900000Y-102966666D01*
X144852380Y-102871428D01*
X145852380Y-102109523D02*
X144852380Y-102109523D01*
X145852380Y-101538095D02*
X145280952Y-101966666D01*
X144852380Y-101538095D02*
X145423809Y-102109523D01*
%TO.C,R6*%
X136625714Y-104972380D02*
X136054285Y-104972380D01*
X136340000Y-104972380D02*
X136340000Y-103972380D01*
X136244761Y-104115238D01*
X136149523Y-104210476D01*
X136054285Y-104258095D01*
X137054285Y-104972380D02*
X137054285Y-103972380D01*
X137625714Y-104972380D02*
X137197142Y-104400952D01*
X137625714Y-103972380D02*
X137054285Y-104543809D01*
%TO.C,Q2*%
X139942976Y-105198571D02*
X140085833Y-105246190D01*
X140133452Y-105293809D01*
X140181071Y-105389047D01*
X140181071Y-105531904D01*
X140133452Y-105627142D01*
X140085833Y-105674761D01*
X139990595Y-105722380D01*
X139609642Y-105722380D01*
X139609642Y-104722380D01*
X139942976Y-104722380D01*
X140038214Y-104770000D01*
X140085833Y-104817619D01*
X140133452Y-104912857D01*
X140133452Y-105008095D01*
X140085833Y-105103333D01*
X140038214Y-105150952D01*
X139942976Y-105198571D01*
X139609642Y-105198571D01*
X140562023Y-105674761D02*
X140704880Y-105722380D01*
X140942976Y-105722380D01*
X141038214Y-105674761D01*
X141085833Y-105627142D01*
X141133452Y-105531904D01*
X141133452Y-105436666D01*
X141085833Y-105341428D01*
X141038214Y-105293809D01*
X140942976Y-105246190D01*
X140752500Y-105198571D01*
X140657261Y-105150952D01*
X140609642Y-105103333D01*
X140562023Y-105008095D01*
X140562023Y-104912857D01*
X140609642Y-104817619D01*
X140657261Y-104770000D01*
X140752500Y-104722380D01*
X140990595Y-104722380D01*
X141133452Y-104770000D01*
X141514404Y-105674761D02*
X141657261Y-105722380D01*
X141895357Y-105722380D01*
X141990595Y-105674761D01*
X142038214Y-105627142D01*
X142085833Y-105531904D01*
X142085833Y-105436666D01*
X142038214Y-105341428D01*
X141990595Y-105293809D01*
X141895357Y-105246190D01*
X141704880Y-105198571D01*
X141609642Y-105150952D01*
X141562023Y-105103333D01*
X141514404Y-105008095D01*
X141514404Y-104912857D01*
X141562023Y-104817619D01*
X141609642Y-104770000D01*
X141704880Y-104722380D01*
X141942976Y-104722380D01*
X142085833Y-104770000D01*
X143038214Y-105722380D02*
X142466785Y-105722380D01*
X142752500Y-105722380D02*
X142752500Y-104722380D01*
X142657261Y-104865238D01*
X142562023Y-104960476D01*
X142466785Y-105008095D01*
X143371547Y-104722380D02*
X143990595Y-104722380D01*
X143657261Y-105103333D01*
X143800119Y-105103333D01*
X143895357Y-105150952D01*
X143942976Y-105198571D01*
X143990595Y-105293809D01*
X143990595Y-105531904D01*
X143942976Y-105627142D01*
X143895357Y-105674761D01*
X143800119Y-105722380D01*
X143514404Y-105722380D01*
X143419166Y-105674761D01*
X143371547Y-105627142D01*
X144562023Y-105150952D02*
X144466785Y-105103333D01*
X144419166Y-105055714D01*
X144371547Y-104960476D01*
X144371547Y-104912857D01*
X144419166Y-104817619D01*
X144466785Y-104770000D01*
X144562023Y-104722380D01*
X144752500Y-104722380D01*
X144847738Y-104770000D01*
X144895357Y-104817619D01*
X144942976Y-104912857D01*
X144942976Y-104960476D01*
X144895357Y-105055714D01*
X144847738Y-105103333D01*
X144752500Y-105150952D01*
X144562023Y-105150952D01*
X144466785Y-105198571D01*
X144419166Y-105246190D01*
X144371547Y-105341428D01*
X144371547Y-105531904D01*
X144419166Y-105627142D01*
X144466785Y-105674761D01*
X144562023Y-105722380D01*
X144752500Y-105722380D01*
X144847738Y-105674761D01*
X144895357Y-105627142D01*
X144942976Y-105531904D01*
X144942976Y-105341428D01*
X144895357Y-105246190D01*
X144847738Y-105198571D01*
X144752500Y-105150952D01*
%TO.C,R2*%
X136651245Y-115245140D02*
X136079816Y-115245140D01*
X136365531Y-115245140D02*
X136365531Y-114245140D01*
X136270292Y-114387998D01*
X136175054Y-114483236D01*
X136079816Y-114530855D01*
X137079816Y-115245140D02*
X137079816Y-114245140D01*
X137651245Y-115245140D02*
X137222673Y-114673712D01*
X137651245Y-114245140D02*
X137079816Y-114816569D01*
%TO.C,R1*%
X154852380Y-125690476D02*
X154852380Y-126261904D01*
X154852380Y-125976190D02*
X153852380Y-125976190D01*
X153995238Y-126071428D01*
X154090476Y-126166666D01*
X154138095Y-126261904D01*
X153852380Y-125071428D02*
X153852380Y-124976190D01*
X153900000Y-124880952D01*
X153947619Y-124833333D01*
X154042857Y-124785714D01*
X154233333Y-124738095D01*
X154471428Y-124738095D01*
X154661904Y-124785714D01*
X154757142Y-124833333D01*
X154804761Y-124880952D01*
X154852380Y-124976190D01*
X154852380Y-125071428D01*
X154804761Y-125166666D01*
X154757142Y-125214285D01*
X154661904Y-125261904D01*
X154471428Y-125309523D01*
X154233333Y-125309523D01*
X154042857Y-125261904D01*
X153947619Y-125214285D01*
X153900000Y-125166666D01*
X153852380Y-125071428D01*
X154852380Y-124309523D02*
X153852380Y-124309523D01*
X154852380Y-123738095D02*
X154280952Y-124166666D01*
X153852380Y-123738095D02*
X154423809Y-124309523D01*
%TO.C,U1*%
X148609523Y-121952380D02*
X148609523Y-120952380D01*
X148990476Y-120952380D01*
X149085714Y-121000000D01*
X149133333Y-121047619D01*
X149180952Y-121142857D01*
X149180952Y-121285714D01*
X149133333Y-121380952D01*
X149085714Y-121428571D01*
X148990476Y-121476190D01*
X148609523Y-121476190D01*
X150180952Y-121857142D02*
X150133333Y-121904761D01*
X149990476Y-121952380D01*
X149895238Y-121952380D01*
X149752380Y-121904761D01*
X149657142Y-121809523D01*
X149609523Y-121714285D01*
X149561904Y-121523809D01*
X149561904Y-121380952D01*
X149609523Y-121190476D01*
X149657142Y-121095238D01*
X149752380Y-121000000D01*
X149895238Y-120952380D01*
X149990476Y-120952380D01*
X150133333Y-121000000D01*
X150180952Y-121047619D01*
X150752380Y-121380952D02*
X150657142Y-121333333D01*
X150609523Y-121285714D01*
X150561904Y-121190476D01*
X150561904Y-121142857D01*
X150609523Y-121047619D01*
X150657142Y-121000000D01*
X150752380Y-120952380D01*
X150942857Y-120952380D01*
X151038095Y-121000000D01*
X151085714Y-121047619D01*
X151133333Y-121142857D01*
X151133333Y-121190476D01*
X151085714Y-121285714D01*
X151038095Y-121333333D01*
X150942857Y-121380952D01*
X150752380Y-121380952D01*
X150657142Y-121428571D01*
X150609523Y-121476190D01*
X150561904Y-121571428D01*
X150561904Y-121761904D01*
X150609523Y-121857142D01*
X150657142Y-121904761D01*
X150752380Y-121952380D01*
X150942857Y-121952380D01*
X151038095Y-121904761D01*
X151085714Y-121857142D01*
X151133333Y-121761904D01*
X151133333Y-121571428D01*
X151085714Y-121476190D01*
X151038095Y-121428571D01*
X150942857Y-121380952D01*
X152085714Y-121952380D02*
X151514285Y-121952380D01*
X151800000Y-121952380D02*
X151800000Y-120952380D01*
X151704761Y-121095238D01*
X151609523Y-121190476D01*
X151514285Y-121238095D01*
X152419047Y-120952380D02*
X153085714Y-120952380D01*
X152657142Y-121952380D01*
%TO.C,Q1*%
X139913779Y-111548571D02*
X140050684Y-111596190D01*
X140092351Y-111643809D01*
X140128065Y-111739047D01*
X140110208Y-111881904D01*
X140050684Y-111977142D01*
X139997113Y-112024761D01*
X139895922Y-112072380D01*
X139514970Y-112072380D01*
X139639970Y-111072380D01*
X139973303Y-111072380D01*
X140062589Y-111120000D01*
X140104255Y-111167619D01*
X140139970Y-111262857D01*
X140128065Y-111358095D01*
X140068541Y-111453333D01*
X140014970Y-111500952D01*
X139913779Y-111548571D01*
X139580446Y-111548571D01*
X140473303Y-112024761D02*
X140610208Y-112072380D01*
X140848303Y-112072380D01*
X140949494Y-112024761D01*
X141003065Y-111977142D01*
X141062589Y-111881904D01*
X141074494Y-111786666D01*
X141038779Y-111691428D01*
X140997113Y-111643809D01*
X140907827Y-111596190D01*
X140723303Y-111548571D01*
X140634017Y-111500952D01*
X140592351Y-111453333D01*
X140556636Y-111358095D01*
X140568541Y-111262857D01*
X140628065Y-111167619D01*
X140681636Y-111120000D01*
X140782827Y-111072380D01*
X141020922Y-111072380D01*
X141157827Y-111120000D01*
X141425684Y-112024761D02*
X141562589Y-112072380D01*
X141800684Y-112072380D01*
X141901875Y-112024761D01*
X141955446Y-111977142D01*
X142014970Y-111881904D01*
X142026875Y-111786666D01*
X141991160Y-111691428D01*
X141949494Y-111643809D01*
X141860208Y-111596190D01*
X141675684Y-111548571D01*
X141586398Y-111500952D01*
X141544732Y-111453333D01*
X141509017Y-111358095D01*
X141520922Y-111262857D01*
X141580446Y-111167619D01*
X141634017Y-111120000D01*
X141735208Y-111072380D01*
X141973303Y-111072380D01*
X142110208Y-111120000D01*
X142943541Y-112072380D02*
X142372113Y-112072380D01*
X142657827Y-112072380D02*
X142782827Y-111072380D01*
X142669732Y-111215238D01*
X142562589Y-111310476D01*
X142461398Y-111358095D01*
X143401875Y-111072380D02*
X144020922Y-111072380D01*
X143639970Y-111453333D01*
X143782827Y-111453333D01*
X143872113Y-111500952D01*
X143913779Y-111548571D01*
X143949494Y-111643809D01*
X143919732Y-111881904D01*
X143860208Y-111977142D01*
X143806636Y-112024761D01*
X143705446Y-112072380D01*
X143419732Y-112072380D01*
X143330446Y-112024761D01*
X143288779Y-111977142D01*
X144538779Y-111500952D02*
X144449494Y-111453333D01*
X144407827Y-111405714D01*
X144372113Y-111310476D01*
X144378065Y-111262857D01*
X144437589Y-111167619D01*
X144491160Y-111120000D01*
X144592351Y-111072380D01*
X144782827Y-111072380D01*
X144872113Y-111120000D01*
X144913779Y-111167619D01*
X144949494Y-111262857D01*
X144943541Y-111310476D01*
X144884017Y-111405714D01*
X144830446Y-111453333D01*
X144729255Y-111500952D01*
X144538779Y-111500952D01*
X144437589Y-111548571D01*
X144384017Y-111596190D01*
X144324494Y-111691428D01*
X144300684Y-111881904D01*
X144336398Y-111977142D01*
X144378065Y-112024761D01*
X144467351Y-112072380D01*
X144657827Y-112072380D01*
X144759017Y-112024761D01*
X144812589Y-111977142D01*
X144872113Y-111881904D01*
X144895922Y-111691428D01*
X144860208Y-111596190D01*
X144818541Y-111548571D01*
X144729255Y-111500952D01*
%TO.C,C1*%
X142357142Y-127285714D02*
X142357142Y-127952380D01*
X142119047Y-126904761D02*
X141880952Y-127619047D01*
X142500000Y-127619047D01*
X142785714Y-126952380D02*
X143452380Y-126952380D01*
X143023809Y-127952380D01*
X144023809Y-126952380D02*
X144119047Y-126952380D01*
X144214285Y-127000000D01*
X144261904Y-127047619D01*
X144309523Y-127142857D01*
X144357142Y-127333333D01*
X144357142Y-127571428D01*
X144309523Y-127761904D01*
X144261904Y-127857142D01*
X144214285Y-127904761D01*
X144119047Y-127952380D01*
X144023809Y-127952380D01*
X143928571Y-127904761D01*
X143880952Y-127857142D01*
X143833333Y-127761904D01*
X143785714Y-127571428D01*
X143785714Y-127333333D01*
X143833333Y-127142857D01*
X143880952Y-127047619D01*
X143928571Y-127000000D01*
X144023809Y-126952380D01*
X145214285Y-127285714D02*
X145214285Y-127952380D01*
X144785714Y-127285714D02*
X144785714Y-127809523D01*
X144833333Y-127904761D01*
X144928571Y-127952380D01*
X145071428Y-127952380D01*
X145166666Y-127904761D01*
X145214285Y-127857142D01*
X146023809Y-127428571D02*
X145690476Y-127428571D01*
X145690476Y-127952380D02*
X145690476Y-126952380D01*
X146166666Y-126952380D01*
%TO.C,D1*%
X149802380Y-125642857D02*
X149802380Y-126119047D01*
X148802380Y-126119047D01*
X149278571Y-125309523D02*
X149278571Y-124976190D01*
X149802380Y-124833333D02*
X149802380Y-125309523D01*
X148802380Y-125309523D01*
X148802380Y-124833333D01*
X149802380Y-124404761D02*
X148802380Y-124404761D01*
X148802380Y-124166666D01*
X148850000Y-124023809D01*
X148945238Y-123928571D01*
X149040476Y-123880952D01*
X149230952Y-123833333D01*
X149373809Y-123833333D01*
X149564285Y-123880952D01*
X149659523Y-123928571D01*
X149754761Y-124023809D01*
X149802380Y-124166666D01*
X149802380Y-124404761D01*
D11*
%TO.C,J7*%
X124480000Y-95060000D02*
X120480000Y-95060000D01*
X125510000Y-98470000D02*
X124910000Y-98470000D01*
X120490000Y-96730000D02*
X120490000Y-99270000D01*
X125510000Y-100650000D02*
X125510000Y-95350000D01*
X120490000Y-99270000D02*
X119490000Y-99270000D01*
X124910000Y-98470000D02*
X124910000Y-100070000D01*
X119490000Y-96730000D02*
X120490000Y-96730000D01*
X119490000Y-100650000D02*
X125510000Y-100650000D01*
X124910000Y-97530000D02*
X125510000Y-97530000D01*
X119490000Y-95350000D02*
X119490000Y-100650000D01*
X119490000Y-96980000D02*
X120490000Y-96980000D01*
X121020000Y-99020000D02*
X120490000Y-99270000D01*
X120490000Y-96730000D02*
X121020000Y-96980000D01*
X125510000Y-95350000D02*
X119490000Y-95350000D01*
X119490000Y-99020000D02*
X120490000Y-99020000D01*
X125510000Y-95930000D02*
X124910000Y-95930000D01*
X124910000Y-95930000D02*
X124910000Y-97530000D01*
X124910000Y-100070000D02*
X125510000Y-100070000D01*
X121020000Y-96980000D02*
X121020000Y-99020000D01*
%TO.C,J1*%
X157355000Y-127850000D02*
X163675000Y-127850000D01*
X157355000Y-127850000D02*
X157355000Y-122190000D01*
X157355000Y-122190000D02*
X163675000Y-122190000D01*
X163675000Y-122960000D02*
X163675000Y-122190000D01*
X157815000Y-127850000D02*
X157815000Y-122190000D01*
X163915000Y-128090000D02*
X163915000Y-127590000D01*
X163115000Y-127850000D02*
X163115000Y-127080000D01*
X163115000Y-122960000D02*
X163115000Y-122190000D01*
X163675000Y-127850000D02*
X163675000Y-127080000D01*
X163675000Y-125500000D02*
X163675000Y-124540000D01*
X163175000Y-128090000D02*
X163915000Y-128090000D01*
X163115000Y-125500000D02*
X163115000Y-124540000D01*
%TO.C,R3*%
X147735000Y-108992936D02*
X147735000Y-109447064D01*
X146265000Y-108992936D02*
X146265000Y-109447064D01*
%TO.C,J2*%
X124910000Y-110010000D02*
X124910000Y-111610000D01*
X124910000Y-109070000D02*
X125510000Y-109070000D01*
X119490000Y-103440000D02*
X120490000Y-103440000D01*
X121020000Y-103440000D02*
X121020000Y-110560000D01*
X124910000Y-107470000D02*
X124910000Y-109070000D01*
X124910000Y-104930000D02*
X124910000Y-106530000D01*
X125510000Y-112190000D02*
X125510000Y-101810000D01*
X119490000Y-103190000D02*
X120490000Y-103190000D01*
X119490000Y-101810000D02*
X119490000Y-112190000D01*
X125510000Y-107470000D02*
X124910000Y-107470000D01*
X124910000Y-106530000D02*
X125510000Y-106530000D01*
X120490000Y-110810000D02*
X119490000Y-110810000D01*
X124910000Y-111610000D02*
X125510000Y-111610000D01*
X119490000Y-110560000D02*
X120490000Y-110560000D01*
X119490000Y-112190000D02*
X125510000Y-112190000D01*
X125510000Y-110010000D02*
X124910000Y-110010000D01*
X120490000Y-103190000D02*
X120490000Y-110810000D01*
X121020000Y-110560000D02*
X120490000Y-110810000D01*
X125510000Y-101810000D02*
X119490000Y-101810000D01*
X124910000Y-102390000D02*
X124910000Y-103990000D01*
X120490000Y-103190000D02*
X121020000Y-103440000D01*
X124910000Y-103990000D02*
X125510000Y-103990000D01*
X124480000Y-101520000D02*
X120480000Y-101520000D01*
X125510000Y-102390000D02*
X124910000Y-102390000D01*
X125510000Y-104930000D02*
X124910000Y-104930000D01*
%TO.C,R4*%
X136612936Y-108685000D02*
X137067064Y-108685000D01*
X136612936Y-107215000D02*
X137067064Y-107215000D01*
%TO.C,J3*%
X163725000Y-114590000D02*
X163725000Y-98390000D01*
X150725000Y-114590000D02*
X150725000Y-98390000D01*
X150725000Y-114590000D02*
X163725000Y-114590000D01*
X150725000Y-98390000D02*
X163725000Y-98390000D01*
%TO.C,R5*%
X147735000Y-103097064D02*
X147735000Y-102642936D01*
X146265000Y-103097064D02*
X146265000Y-102642936D01*
%TO.C,R6*%
X136612936Y-103605000D02*
X137067064Y-103605000D01*
X136612936Y-102135000D02*
X137067064Y-102135000D01*
%TO.C,Q2*%
X142252500Y-104430000D02*
X142902500Y-104430000D01*
X142252500Y-104430000D02*
X141602500Y-104430000D01*
X142252500Y-101310000D02*
X140577500Y-101310000D01*
X142252500Y-101310000D02*
X142902500Y-101310000D01*
%TO.C,R2*%
X137067064Y-113765000D02*
X136612936Y-113765000D01*
X137067064Y-112295000D02*
X136612936Y-112295000D01*
%TO.C,R1*%
X152165000Y-125227064D02*
X152165000Y-124772936D01*
X153635000Y-125227064D02*
X153635000Y-124772936D01*
%TO.C,U1*%
X153640000Y-120605000D02*
X153640000Y-115405000D01*
X148340000Y-115405000D02*
X148340000Y-120605000D01*
X148340000Y-120605000D02*
X149990000Y-120605000D01*
X153640000Y-115405000D02*
X148340000Y-115405000D01*
X151990000Y-120605000D02*
X153640000Y-120605000D01*
X151990000Y-120605000D02*
G75*
G03*
X149990000Y-120605000I-1000000J0D01*
G01*
%TO.C,Q1*%
X142252500Y-107660000D02*
X140577500Y-107660000D01*
X142252500Y-110780000D02*
X142902500Y-110780000D01*
X142252500Y-110780000D02*
X141602500Y-110780000D01*
X142252500Y-107660000D02*
X142902500Y-107660000D01*
%TO.C,J6*%
X150730000Y-92070000D02*
X137970000Y-92070000D01*
X150730000Y-94730000D02*
X137970000Y-94730000D01*
X153330000Y-93400000D02*
X153330000Y-94730000D01*
X150730000Y-92070000D02*
X150730000Y-94730000D01*
X153330000Y-94730000D02*
X152000000Y-94730000D01*
X137970000Y-92070000D02*
X137970000Y-94730000D01*
%TO.C,C1*%
X143489000Y-125453323D02*
X140941000Y-125453323D01*
X138459000Y-124853323D02*
X135453000Y-124853323D01*
X138459000Y-124413323D02*
X135196000Y-124413323D01*
X144264000Y-124293323D02*
X140941000Y-124293323D01*
X144773000Y-122332323D02*
X134627000Y-122332323D01*
X141909000Y-126653323D02*
X137491000Y-126653323D01*
X138459000Y-124333323D02*
X135155000Y-124333323D01*
X142856000Y-126053323D02*
X136544000Y-126053323D01*
X144754000Y-122572323D02*
X134646000Y-122572323D01*
X140762000Y-127053323D02*
X138638000Y-127053323D01*
X144704000Y-122933323D02*
X134696000Y-122933323D01*
X143001000Y-125933323D02*
X136399000Y-125933323D01*
X144656000Y-123173323D02*
X134744000Y-123173323D01*
X144468000Y-123813323D02*
X140941000Y-123813323D01*
X138459000Y-125173323D02*
X135680000Y-125173323D01*
X144407000Y-123973323D02*
X140941000Y-123973323D01*
X138459000Y-125533323D02*
X135984000Y-125533323D01*
X142645000Y-126213323D02*
X136755000Y-126213323D01*
X144537000Y-123613323D02*
X140941000Y-123613323D01*
X142954000Y-125973323D02*
X136446000Y-125973323D01*
X138459000Y-124613323D02*
X135305000Y-124613323D01*
X144585000Y-123453323D02*
X140941000Y-123453323D01*
X138459000Y-124013323D02*
X135010000Y-124013323D01*
X138459000Y-124373323D02*
X135175000Y-124373323D01*
X140930000Y-127013323D02*
X138470000Y-127013323D01*
X144690000Y-123013323D02*
X134710000Y-123013323D01*
X144438000Y-123893323D02*
X140941000Y-123893323D01*
X144524000Y-123653323D02*
X140941000Y-123653323D01*
X144245000Y-124333323D02*
X140941000Y-124333323D01*
X138459000Y-123573323D02*
X134850000Y-123573323D01*
X142906000Y-126013323D02*
X136494000Y-126013323D01*
X138459000Y-123653323D02*
X134876000Y-123653323D01*
X144321000Y-124173323D02*
X140941000Y-124173323D01*
X143178000Y-125773323D02*
X140941000Y-125773323D01*
X144775000Y-122292323D02*
X134625000Y-122292323D01*
X138459000Y-124173323D02*
X135079000Y-124173323D01*
X144339000Y-124133323D02*
X140941000Y-124133323D01*
X141442000Y-126853323D02*
X137958000Y-126853323D01*
X143379000Y-125573323D02*
X140941000Y-125573323D01*
X144483000Y-123773323D02*
X140941000Y-123773323D01*
X138459000Y-125053323D02*
X135590000Y-125053323D01*
X138459000Y-125693323D02*
X136139000Y-125693323D01*
X144674000Y-123093323D02*
X134726000Y-123093323D01*
X144204000Y-124413323D02*
X140941000Y-124413323D01*
X143136000Y-125813323D02*
X136264000Y-125813323D01*
X143261000Y-125693323D02*
X140941000Y-125693323D01*
X144711000Y-122893323D02*
X134689000Y-122893323D01*
X138459000Y-124293323D02*
X135136000Y-124293323D01*
X144765000Y-122452323D02*
X134635000Y-122452323D01*
X144682000Y-123053323D02*
X134718000Y-123053323D01*
X143720000Y-125173323D02*
X140941000Y-125173323D01*
X144140000Y-124533323D02*
X140941000Y-124533323D01*
X142210000Y-126493323D02*
X137190000Y-126493323D01*
X144628000Y-123293323D02*
X134772000Y-123293323D01*
X141078000Y-126973323D02*
X138322000Y-126973323D01*
X142754000Y-126133323D02*
X136646000Y-126133323D01*
X138459000Y-123413323D02*
X134803000Y-123413323D01*
X144095000Y-124613323D02*
X140941000Y-124613323D01*
X144071000Y-124653323D02*
X140941000Y-124653323D01*
X143092000Y-125853323D02*
X136308000Y-125853323D01*
X143340000Y-125613323D02*
X140941000Y-125613323D01*
X138459000Y-125213323D02*
X135711000Y-125213323D01*
X143075000Y-117072677D02*
X142075000Y-117072677D01*
X138459000Y-124213323D02*
X135097000Y-124213323D01*
X144618000Y-123333323D02*
X140941000Y-123333323D01*
X144597000Y-123413323D02*
X140941000Y-123413323D01*
X143921000Y-124893323D02*
X140941000Y-124893323D01*
X138459000Y-124933323D02*
X135506000Y-124933323D01*
X144374000Y-124053323D02*
X140941000Y-124053323D01*
X138459000Y-124493323D02*
X135238000Y-124493323D01*
X144357000Y-124093323D02*
X140941000Y-124093323D01*
X144303000Y-124213323D02*
X140941000Y-124213323D01*
X142065000Y-126573323D02*
X137335000Y-126573323D01*
X142409000Y-126373323D02*
X136991000Y-126373323D01*
X142139000Y-126533323D02*
X137261000Y-126533323D01*
X143973000Y-124813323D02*
X140941000Y-124813323D01*
X138459000Y-123493323D02*
X134826000Y-123493323D01*
X144745000Y-122652323D02*
X134655000Y-122652323D01*
X144778000Y-122212323D02*
X134622000Y-122212323D01*
X143810000Y-125053323D02*
X140941000Y-125053323D01*
X138459000Y-125773323D02*
X136222000Y-125773323D01*
X144638000Y-123253323D02*
X134762000Y-123253323D01*
X144562000Y-123533323D02*
X140941000Y-123533323D01*
X143838000Y-125013323D02*
X140941000Y-125013323D01*
X144697000Y-122973323D02*
X134703000Y-122973323D01*
X144497000Y-123733323D02*
X140941000Y-123733323D01*
X143866000Y-124973323D02*
X140941000Y-124973323D01*
X143780000Y-125093323D02*
X140941000Y-125093323D01*
X144117000Y-124573323D02*
X140941000Y-124573323D01*
X144162000Y-124493323D02*
X140941000Y-124493323D01*
X138459000Y-124733323D02*
X135377000Y-124733323D01*
X144574000Y-123493323D02*
X140941000Y-123493323D01*
X138459000Y-123773323D02*
X134917000Y-123773323D01*
X144718000Y-122853323D02*
X134682000Y-122853323D01*
X144550000Y-123573323D02*
X140941000Y-123573323D01*
X141989000Y-126613323D02*
X137411000Y-126613323D01*
X144770000Y-122372323D02*
X134630000Y-122372323D01*
X138459000Y-125613323D02*
X136060000Y-125613323D01*
X143657000Y-125253323D02*
X140941000Y-125253323D01*
X138459000Y-125133323D02*
X135650000Y-125133323D01*
X143558000Y-125373323D02*
X140941000Y-125373323D01*
X141210000Y-126933323D02*
X138190000Y-126933323D01*
X138459000Y-123933323D02*
X134977000Y-123933323D01*
X138459000Y-123613323D02*
X134863000Y-123613323D01*
X144740000Y-122692323D02*
X134660000Y-122692323D01*
X144779000Y-122172323D02*
X134621000Y-122172323D01*
X144647000Y-123213323D02*
X134753000Y-123213323D01*
X138459000Y-123693323D02*
X134889000Y-123693323D01*
X138459000Y-125093323D02*
X135620000Y-125093323D01*
X144758000Y-122532323D02*
X134642000Y-122532323D01*
X138459000Y-123893323D02*
X134962000Y-123893323D01*
X138459000Y-123373323D02*
X134793000Y-123373323D01*
X138459000Y-125253323D02*
X135743000Y-125253323D01*
X144047000Y-124693323D02*
X140941000Y-124693323D01*
X138459000Y-123333323D02*
X134782000Y-123333323D01*
X144665000Y-123133323D02*
X134735000Y-123133323D01*
X138459000Y-124773323D02*
X135402000Y-124773323D01*
X144777000Y-122252323D02*
X134623000Y-122252323D01*
X143750000Y-125133323D02*
X140941000Y-125133323D01*
X138459000Y-123973323D02*
X134993000Y-123973323D01*
X144768000Y-122412323D02*
X134632000Y-122412323D01*
X138459000Y-125373323D02*
X135842000Y-125373323D01*
X138459000Y-124533323D02*
X135260000Y-124533323D01*
X144735000Y-122732323D02*
X134665000Y-122732323D01*
X142279000Y-126453323D02*
X137121000Y-126453323D01*
X138459000Y-125573323D02*
X136021000Y-125573323D01*
X144225000Y-124373323D02*
X140941000Y-124373323D01*
X144730000Y-122773323D02*
X134670000Y-122773323D01*
X138459000Y-124133323D02*
X135061000Y-124133323D01*
X142345000Y-126413323D02*
X137055000Y-126413323D01*
X142589000Y-126253323D02*
X136811000Y-126253323D01*
X138459000Y-124573323D02*
X135283000Y-124573323D01*
X142470000Y-126333323D02*
X136930000Y-126333323D01*
X138459000Y-124093323D02*
X135043000Y-124093323D01*
X144511000Y-123693323D02*
X140941000Y-123693323D01*
X138459000Y-125293323D02*
X135775000Y-125293323D01*
X144762000Y-122492323D02*
X134638000Y-122492323D01*
X141825000Y-126693323D02*
X137575000Y-126693323D01*
X142806000Y-126093323D02*
X136594000Y-126093323D01*
X138459000Y-123733323D02*
X134903000Y-123733323D01*
X141330000Y-126893323D02*
X138070000Y-126893323D01*
X143301000Y-125653323D02*
X140941000Y-125653323D01*
X143947000Y-124853323D02*
X140941000Y-124853323D01*
X138459000Y-125493323D02*
X135947000Y-125493323D01*
X142530000Y-126293323D02*
X136870000Y-126293323D01*
X143689000Y-125213323D02*
X140941000Y-125213323D01*
X138459000Y-125733323D02*
X136180000Y-125733323D01*
X141737000Y-126733323D02*
X137663000Y-126733323D01*
X138459000Y-124973323D02*
X135534000Y-124973323D01*
X143047000Y-125893323D02*
X136353000Y-125893323D01*
X143524000Y-125413323D02*
X140941000Y-125413323D01*
X138459000Y-123533323D02*
X134838000Y-123533323D01*
X142700000Y-126173323D02*
X136700000Y-126173323D01*
X138459000Y-124453323D02*
X135217000Y-124453323D01*
X138459000Y-124253323D02*
X135116000Y-124253323D01*
X138459000Y-125013323D02*
X135562000Y-125013323D01*
X144454000Y-123853323D02*
X140941000Y-123853323D01*
X138459000Y-124053323D02*
X135026000Y-124053323D01*
X143592000Y-125333323D02*
X140941000Y-125333323D01*
X141546000Y-126813323D02*
X137854000Y-126813323D01*
X143998000Y-124773323D02*
X140941000Y-124773323D01*
X138459000Y-124813323D02*
X135427000Y-124813323D01*
X140562000Y-127093323D02*
X138838000Y-127093323D01*
X144390000Y-124013323D02*
X140941000Y-124013323D01*
X143453000Y-125493323D02*
X140941000Y-125493323D01*
X144780000Y-122132323D02*
X134620000Y-122132323D01*
X142575000Y-116572677D02*
X142575000Y-117572677D01*
X138459000Y-123453323D02*
X134815000Y-123453323D01*
X138459000Y-124893323D02*
X135479000Y-124893323D01*
X138459000Y-125413323D02*
X135876000Y-125413323D01*
X143894000Y-124933323D02*
X140941000Y-124933323D01*
X144750000Y-122612323D02*
X134650000Y-122612323D01*
X138459000Y-123813323D02*
X134932000Y-123813323D01*
X138459000Y-125333323D02*
X135808000Y-125333323D01*
X140299000Y-127133323D02*
X139101000Y-127133323D01*
X144183000Y-124453323D02*
X140941000Y-124453323D01*
X144423000Y-123933323D02*
X140941000Y-123933323D01*
X143416000Y-125533323D02*
X140941000Y-125533323D01*
X138459000Y-123853323D02*
X134946000Y-123853323D01*
X144284000Y-124253323D02*
X140941000Y-124253323D01*
X144023000Y-124733323D02*
X140941000Y-124733323D01*
X143220000Y-125733323D02*
X140941000Y-125733323D01*
X138459000Y-125453323D02*
X135911000Y-125453323D01*
X144780000Y-122052323D02*
X134620000Y-122052323D01*
X141644000Y-126773323D02*
X137756000Y-126773323D01*
X144780000Y-122092323D02*
X134620000Y-122092323D01*
X144724000Y-122813323D02*
X134676000Y-122813323D01*
X144607000Y-123373323D02*
X140941000Y-123373323D01*
X138459000Y-125653323D02*
X136099000Y-125653323D01*
X138459000Y-124653323D02*
X135329000Y-124653323D01*
X138459000Y-124693323D02*
X135353000Y-124693323D01*
X143625000Y-125293323D02*
X140941000Y-125293323D01*
X144820000Y-122052323D02*
G75*
G03*
X144820000Y-122052323I-5120000J0D01*
G01*
%TO.C,D1*%
X148660000Y-126685000D02*
X148660000Y-124000000D01*
X146740000Y-124000000D02*
X146740000Y-126685000D01*
X146740000Y-126685000D02*
X148660000Y-126685000D01*
%TD*%
M02*
