%TF.GenerationSoftware,KiCad,Pcbnew,(6.0.8-1)-1*%
%TF.CreationDate,2022-10-27T21:51:23+08:00*%
%TF.ProjectId,Esp32_AGV_Relay,45737033-325f-4414-9756-5f52656c6179,rev?*%
%TF.SameCoordinates,Original*%
%TF.FileFunction,Legend,Bot*%
%TF.FilePolarity,Positive*%
%FSLAX46Y46*%
G04 Gerber Fmt 4.6, Leading zero omitted, Abs format (unit mm)*
G04 Created by KiCad (PCBNEW (6.0.8-1)-1) date 2022-10-27 21:51:23*
%MOMM*%
%LPD*%
G01*
G04 APERTURE LIST*
%ADD10C,0.150000*%
%ADD11C,0.120000*%
G04 APERTURE END LIST*
D10*
X131619047Y-126452380D02*
X131619047Y-127166666D01*
X131666666Y-127309523D01*
X131761904Y-127404761D01*
X131904761Y-127452380D01*
X132000000Y-127452380D01*
X130666666Y-127452380D02*
X131142857Y-127452380D01*
X131142857Y-126452380D01*
X129761904Y-127357142D02*
X129809523Y-127404761D01*
X129952380Y-127452380D01*
X130047619Y-127452380D01*
X130190476Y-127404761D01*
X130285714Y-127309523D01*
X130333333Y-127214285D01*
X130380952Y-127023809D01*
X130380952Y-126880952D01*
X130333333Y-126690476D01*
X130285714Y-126595238D01*
X130190476Y-126500000D01*
X130047619Y-126452380D01*
X129952380Y-126452380D01*
X129809523Y-126500000D01*
X129761904Y-126547619D01*
X129047619Y-126452380D02*
X129047619Y-127166666D01*
X129095238Y-127309523D01*
X129190476Y-127404761D01*
X129333333Y-127452380D01*
X129428571Y-127452380D01*
X128095238Y-127452380D02*
X128571428Y-127452380D01*
X128571428Y-126452380D01*
X127190476Y-127357142D02*
X127238095Y-127404761D01*
X127380952Y-127452380D01*
X127476190Y-127452380D01*
X127619047Y-127404761D01*
X127714285Y-127309523D01*
X127761904Y-127214285D01*
X127809523Y-127023809D01*
X127809523Y-126880952D01*
X127761904Y-126690476D01*
X127714285Y-126595238D01*
X127619047Y-126500000D01*
X127476190Y-126452380D01*
X127380952Y-126452380D01*
X127238095Y-126500000D01*
X127190476Y-126547619D01*
X126476190Y-126452380D02*
X126476190Y-127166666D01*
X126523809Y-127309523D01*
X126619047Y-127404761D01*
X126761904Y-127452380D01*
X126857142Y-127452380D01*
X125523809Y-127452380D02*
X126000000Y-127452380D01*
X126000000Y-126452380D01*
X124619047Y-127357142D02*
X124666666Y-127404761D01*
X124809523Y-127452380D01*
X124904761Y-127452380D01*
X125047619Y-127404761D01*
X125142857Y-127309523D01*
X125190476Y-127214285D01*
X125238095Y-127023809D01*
X125238095Y-126880952D01*
X125190476Y-126690476D01*
X125142857Y-126595238D01*
X125047619Y-126500000D01*
X124904761Y-126452380D01*
X124809523Y-126452380D01*
X124666666Y-126500000D01*
X124619047Y-126547619D01*
X123904761Y-126452380D02*
X123904761Y-127166666D01*
X123952380Y-127309523D01*
X124047619Y-127404761D01*
X124190476Y-127452380D01*
X124285714Y-127452380D01*
X122952380Y-127452380D02*
X123428571Y-127452380D01*
X123428571Y-126452380D01*
X122047619Y-127357142D02*
X122095238Y-127404761D01*
X122238095Y-127452380D01*
X122333333Y-127452380D01*
X122476190Y-127404761D01*
X122571428Y-127309523D01*
X122619047Y-127214285D01*
X122666666Y-127023809D01*
X122666666Y-126880952D01*
X122619047Y-126690476D01*
X122571428Y-126595238D01*
X122476190Y-126500000D01*
X122333333Y-126452380D01*
X122238095Y-126452380D01*
X122095238Y-126500000D01*
X122047619Y-126547619D01*
D11*
%TO.C,J4*%
X132140000Y-95240000D02*
X129540000Y-95240000D01*
X129540000Y-95240000D02*
X129540000Y-97840000D01*
X126940000Y-97840000D02*
X126940000Y-120760000D01*
X128270000Y-95240000D02*
X126940000Y-95240000D01*
X126940000Y-95240000D02*
X126940000Y-96570000D01*
X129540000Y-97840000D02*
X126940000Y-97840000D01*
X132140000Y-120760000D02*
X126940000Y-120760000D01*
X132140000Y-95240000D02*
X132140000Y-120760000D01*
%TO.C,J8*%
X158380000Y-115540000D02*
X158380000Y-116870000D01*
X160980000Y-115540000D02*
X160980000Y-118140000D01*
X160980000Y-118140000D02*
X158380000Y-118140000D01*
X159710000Y-115540000D02*
X158380000Y-115540000D01*
X163580000Y-115540000D02*
X163580000Y-120740000D01*
X163580000Y-120740000D02*
X158380000Y-120740000D01*
X163580000Y-115540000D02*
X160980000Y-115540000D01*
X158380000Y-118140000D02*
X158380000Y-120740000D01*
%TO.C,J5*%
X137970000Y-97905000D02*
X137970000Y-95245000D01*
X150730000Y-95245000D02*
X137970000Y-95245000D01*
X153330000Y-96575000D02*
X153330000Y-95245000D01*
X153330000Y-95245000D02*
X152000000Y-95245000D01*
X150730000Y-97905000D02*
X150730000Y-95245000D01*
X150730000Y-97905000D02*
X137970000Y-97905000D01*
%TD*%
M02*
