M48
; DRILL file {KiCad (6.0.8-1)-1} date 
; FORMAT={-:-/ absolute / inch / decimal}
; #@! TF.CreationDate,2022-10-27T21:51:29+08:00
; #@! TF.GenerationSoftware,Kicad,Pcbnew,(6.0.8-1)-1
; #@! TF.FileFunction,Plated,1,2,PTH
FMAT,2
INCH
; #@! TA.AperFunction,Plated,PTH,ViaDrill
T1C0.0157
; #@! TA.AperFunction,Plated,PTH,ComponentDrill
T2C0.0315
; #@! TA.AperFunction,Plated,PTH,ComponentDrill
T3C0.0394
; #@! TA.AperFunction,Plated,PTH,ComponentDrill
T4C0.0433
; #@! TA.AperFunction,Plated,PTH,ComponentDrill
T5C0.0469
%
G90
G05
T1
X4.8Y-4.725
X4.8Y-4.8
X4.9Y-3.675
X4.975Y-3.675
X5.2Y-4.9
X5.2598Y-4.0512
X5.2598Y-4.248
X5.2598Y-4.3504
X5.275Y-4.9
X5.6463Y-3.925
X5.725Y-3.925
X5.8622Y-4.1535
X6.2Y-4.05
X6.2Y-4.35
X6.3071Y-3.689
X6.3858Y-3.689
T2
X5.7945Y-4.5959
X5.7945Y-4.6959
X5.997Y-4.0587
X5.997Y-4.3264
X6.0945Y-4.5959
X6.0945Y-4.6959
X6.1073Y-4.0587
X6.1073Y-4.1413
X6.1073Y-4.2437
X6.1073Y-4.3264
T3
X5.05Y-3.802
X5.05Y-3.902
X5.05Y-4.002
X5.05Y-4.102
X5.05Y-4.202
X5.05Y-4.302
X5.05Y-4.402
X5.05Y-4.502
X5.05Y-4.602
X5.05Y-4.702
X5.15Y-3.802
X5.15Y-3.902
X5.15Y-4.002
X5.15Y-4.102
X5.15Y-4.202
X5.15Y-4.302
X5.15Y-4.402
X5.15Y-4.502
X5.15Y-4.602
X5.15Y-4.702
X5.4843Y-3.6772
X5.4843Y-3.8022
X5.5Y-4.7068
X5.5Y-4.9036
X5.5843Y-3.6772
X5.5843Y-3.8022
X5.6843Y-3.6772
X5.6843Y-3.8022
X5.7843Y-3.6772
X5.7843Y-3.8022
X5.8843Y-3.6772
X5.8843Y-3.8022
X5.9843Y-3.6772
X5.9843Y-3.8022
X6.2878Y-4.6012
X6.2878Y-4.7012
X6.3878Y-4.6012
X6.3878Y-4.7012
T4
X6.3195Y-4.872
X6.3195Y-4.972
T5
X4.822Y-3.8083
X4.822Y-3.9083
X4.822Y-4.0626
X4.822Y-4.1626
X4.822Y-4.2626
X4.822Y-4.3626
T3
G00X6.19Y-3.9228
M15
G01X6.249Y-3.9228
M16
G05
G00X6.19Y-4.4622
M15
G01X6.249Y-4.4622
M16
G05
G00X6.251Y-4.2319
M15
G01X6.251Y-4.1531
M16
G05
T0
M30
