%TF.GenerationSoftware,KiCad,Pcbnew,(6.0.8-1)-1*%
%TF.CreationDate,2022-10-27T21:51:24+08:00*%
%TF.ProjectId,Esp32_AGV_Relay,45737033-325f-4414-9756-5f52656c6179,rev?*%
%TF.SameCoordinates,Original*%
%TF.FileFunction,Soldermask,Bot*%
%TF.FilePolarity,Negative*%
%FSLAX46Y46*%
G04 Gerber Fmt 4.6, Leading zero omitted, Abs format (unit mm)*
G04 Created by KiCad (PCBNEW (6.0.8-1)-1) date 2022-10-27 21:51:24*
%MOMM*%
%LPD*%
G01*
G04 APERTURE LIST*
G04 Aperture macros list*
%AMRoundRect*
0 Rectangle with rounded corners*
0 $1 Rounding radius*
0 $2 $3 $4 $5 $6 $7 $8 $9 X,Y pos of 4 corners*
0 Add a 4 corners polygon primitive as box body*
4,1,4,$2,$3,$4,$5,$6,$7,$8,$9,$2,$3,0*
0 Add four circle primitives for the rounded corners*
1,1,$1+$1,$2,$3*
1,1,$1+$1,$4,$5*
1,1,$1+$1,$6,$7*
1,1,$1+$1,$8,$9*
0 Add four rect primitives between the rounded corners*
20,1,$1+$1,$2,$3,$4,$5,0*
20,1,$1+$1,$4,$5,$6,$7,0*
20,1,$1+$1,$6,$7,$8,$9,0*
20,1,$1+$1,$8,$9,$2,$3,0*%
G04 Aperture macros list end*
%ADD10RoundRect,0.250000X-0.845000X0.620000X-0.845000X-0.620000X0.845000X-0.620000X0.845000X0.620000X0*%
%ADD11O,2.190000X1.740000*%
%ADD12C,1.100000*%
%ADD13R,2.200000X2.200000*%
%ADD14C,2.200000*%
%ADD15R,1.600000X1.600000*%
%ADD16C,1.600000*%
%ADD17O,2.000000X4.000000*%
%ADD18O,3.500000X2.000000*%
%ADD19O,1.600000X1.600000*%
%ADD20R,1.700000X1.700000*%
%ADD21O,1.700000X1.700000*%
%ADD22R,2.000000X2.000000*%
%ADD23C,2.000000*%
G04 APERTURE END LIST*
D10*
%TO.C,J7*%
X122480000Y-96730000D03*
D11*
X122480000Y-99270000D03*
%TD*%
D12*
%TO.C,J1*%
X163055000Y-123750000D03*
X163055000Y-126290000D03*
D13*
X160515000Y-126290000D03*
D14*
X160515000Y-123750000D03*
%TD*%
D10*
%TO.C,J2*%
X122480000Y-103190000D03*
D11*
X122480000Y-105730000D03*
X122480000Y-108270000D03*
X122480000Y-110810000D03*
%TD*%
D15*
%TO.C,J3*%
X155125000Y-105190000D03*
D16*
X155125000Y-107790000D03*
X155125000Y-103090000D03*
X155125000Y-109890000D03*
X152325000Y-103090000D03*
X152325000Y-109890000D03*
D17*
X158775000Y-106490000D03*
D18*
X157975000Y-99640000D03*
X157975000Y-113340000D03*
%TD*%
D15*
%TO.C,U1*%
X154800000Y-119275000D03*
D19*
X154800000Y-116735000D03*
X147180000Y-116735000D03*
X147180000Y-119275000D03*
%TD*%
D20*
%TO.C,J6*%
X152000000Y-93400000D03*
D21*
X149460000Y-93400000D03*
X146920000Y-93400000D03*
X144380000Y-93400000D03*
X141840000Y-93400000D03*
X139300000Y-93400000D03*
%TD*%
D22*
%TO.C,C1*%
X139700000Y-119552323D03*
D23*
X139700000Y-124552323D03*
%TD*%
D20*
%TO.C,J4*%
X128270000Y-96570000D03*
D21*
X128270000Y-99110000D03*
X128270000Y-101650000D03*
X128270000Y-104190000D03*
X128270000Y-106730000D03*
X128270000Y-109270000D03*
X128270000Y-111810000D03*
X128270000Y-114350000D03*
X128270000Y-116890000D03*
X128270000Y-119430000D03*
X130810000Y-96570000D03*
X130810000Y-99110000D03*
X130810000Y-101650000D03*
X130810000Y-104190000D03*
X130810000Y-106730000D03*
X130810000Y-109270000D03*
X130810000Y-111810000D03*
X130810000Y-114350000D03*
X130810000Y-116890000D03*
X130810000Y-119430000D03*
%TD*%
D20*
%TO.C,J8*%
X159710000Y-116870000D03*
D21*
X159710000Y-119410000D03*
X162250000Y-116870000D03*
X162250000Y-119410000D03*
%TD*%
D20*
%TO.C,J5*%
X152000000Y-96575000D03*
D21*
X149460000Y-96575000D03*
X146920000Y-96575000D03*
X144380000Y-96575000D03*
X141840000Y-96575000D03*
X139300000Y-96575000D03*
%TD*%
M02*
